<svg width="328" height="416" viewBox="0 0 328 416" fill="none" xmlns="http://www.w3.org/2000/svg">
<path d="M168.787 91C166.031 94.9949 164.864 98.1503 165.06 103.275C165.237 107.904 167.127 112.938 168.505 117.243C170.21 122.572 171.543 133.034 166.114 136.131C161.899 138.535 156.858 134.931 158.23 129.259C158.759 127.073 161.269 125.943 163.011 126.911C164.892 127.957 165.799 131.085 166.233 133.248C167.399 139.056 162.719 142.926 161.897 148.182C161.13 153.092 163.021 156.739 165.58 160.457C165.799 160.776 164.341 160.613 163.976 160.613C162.639 160.613 163.233 160.923 164.243 160.923C164.893 160.923 166.276 161.322 165.906 160.302C165.64 159.566 165.58 158.02 165.58 157.194" stroke="#D5A1E5" stroke-linecap="round" stroke-dasharray="10 10"/>
<path d="M167.226 219C170.342 224.07 170.433 230.594 169.435 238.057C168.694 243.6 164.173 239.586 162.032 239.146C153.885 237.474 160.392 272.627 161.674 277.78C161.91 278.728 164.49 287.258 164.614 286.913C164.912 286.083 165.454 280.785 165.454 282.26C165.454 284.44 164.894 286.502 164.894 288.72C164.894 289.822 162.011 287.347 161.284 286.913" stroke="#D5A1E5" stroke-linecap="round" stroke-dasharray="10 10"/>
<path opacity="0.5" fill-rule="evenodd" clip-rule="evenodd" d="M273.001 416H24C10.7451 416 0 405.255 0 392V348C1.67631 350.092 3.52269 353.025 5.54224 357.016C5.92765 357.777 6.30309 358.522 6.67019 359.249C16.0679 377.882 19.9924 385.663 45.6985 394.813C71.8117 404.108 91.4648 410.276 125.928 410.03C142.498 409.912 151.647 408.83 160.879 407.737C170.847 406.558 180.911 405.367 200.52 405.367C230.498 405.367 261.152 410.996 273.001 416Z" fill="url(#paint0_linear_1545_4703)"/>
<path opacity="0.5" fill-rule="evenodd" clip-rule="evenodd" d="M145 416H24C10.7452 416 0 405.255 0 392V286C0.904248 290.069 1.88598 295.971 2.9363 304.23C8.80535 350.381 9.47819 353.58 23.6983 381.059C35.6667 404.187 47.6664 407.001 65.9269 406.538C74.7333 406.315 79.7687 403.718 84.8668 401.089C90.3399 398.267 95.8851 395.407 106.246 395.407C122.434 395.407 138.995 406.434 145 416Z" fill="url(#paint1_linear_1545_4703)"/>
<path opacity="0.5" fill-rule="evenodd" clip-rule="evenodd" d="M327.873 68.0007C327.958 67.1803 328.001 66.3477 328.001 65.5049V23.9994C328.001 10.7446 317.256 -0.000579834 304.001 -0.000579834H156.001C163.023 5.16524 181.72 11.434 200.794 11.434C213.106 11.434 219.732 10.0547 226.278 8.69213C232.359 7.42619 238.372 6.17473 248.81 6.05742C270.483 5.81386 285.188 6.27126 301.241 17.0802C315.729 26.8354 317.231 32.2996 322.086 49.9643C322.805 52.5799 323.597 55.463 324.516 58.667C325.713 62.8408 326.835 65.8702 327.873 68.0007Z" fill="url(#paint2_linear_1545_4703)"/>
<path opacity="0.5" fill-rule="evenodd" clip-rule="evenodd" d="M50.0002 0.000228882H304.001C317.256 0.000228882 328.001 10.7454 328.001 24.0002V75.0004C326.273 72.6916 324.365 69.4305 322.276 64.9654C321.884 64.1275 321.502 63.3085 321.128 62.5078C311.567 42.0085 307.574 33.4479 281.419 23.3808C254.851 13.1542 234.855 6.36888 199.791 6.63891C182.932 6.76875 173.623 7.95979 164.231 9.16158C154.089 10.4593 143.849 11.7696 123.898 11.7696C93.2675 11.7696 61.9427 5.52269 50.0002 0.000228882Z" fill="url(#paint3_linear_1545_4703)"/>
<defs>
<linearGradient id="paint0_linear_1545_4703" x1="0" y1="348" x2="31.8965" y2="476.055" gradientUnits="userSpaceOnUse">
<stop stop-color="#F1DFF6"/>
<stop offset="1" stop-color="#FAE5EE"/>
</linearGradient>
<linearGradient id="paint1_linear_1545_4703" x1="0" y1="286" x2="129.229" y2="430.14" gradientUnits="userSpaceOnUse">
<stop stop-color="#F1DFF6"/>
<stop offset="1" stop-color="#FAE5EE"/>
</linearGradient>
<linearGradient id="paint2_linear_1545_4703" x1="328.001" y1="68.0007" x2="281.5" y2="-49.6174" gradientUnits="userSpaceOnUse">
<stop stop-color="#F1DFF6"/>
<stop offset="1" stop-color="#FAE5EE"/>
</linearGradient>
<linearGradient id="paint3_linear_1545_4703" x1="328.001" y1="75.0004" x2="290.279" y2="-64.8231" gradientUnits="userSpaceOnUse">
<stop stop-color="#F1DFF6"/>
<stop offset="1" stop-color="#FAE5EE"/>
</linearGradient>
</defs>
</svg>
