<svg width="75" height="44" viewBox="0 0 75 44" fill="none" xmlns="http://www.w3.org/2000/svg">
<g clip-path="url(#clip0_1389_11988)">
<path d="M55.5298 35.8682C53.8174 34.6664 51.9763 33.6503 50.0391 32.8379C43.3928 35.6538 28.3549 37.8084 20.4387 38.7932V33.8792C27.3187 33.3258 37.4031 31.8646 41.2141 30.9915L28.0817 27.9958C25.9806 28.2269 18.1129 29.0718 15.9999 29.2054V44C25.605 43.8138 48.198 40.5729 55.5298 35.8682Z" fill="#B42318"/>
<path d="M55.5298 35.8682V30.2608C47.1369 24.0499 28.7226 23.9254 16.4714 18.6107C16.4517 18.6313 16.4307 18.6518 16.4136 18.6711V24.0396C25.7179 28.2256 44.9687 28.3052 55.5298 35.8682Z" fill="#F04438"/>
<path d="M19.446 16.2417C19.446 16.2417 17.4091 17.6079 16.4702 18.6107C18.4275 19.4439 20.4379 20.1524 22.4887 20.7319C24.0108 20.2183 28.2105 19.3644 29.1101 19.1911C24.8171 18.5863 22.0239 17.3691 19.446 16.2417Z" fill="#D92D20"/>
<path d="M16.4715 8.13308C18.1845 9.33392 20.0254 10.3499 21.9621 11.1634C28.6137 8.34751 43.645 6.19162 51.5612 5.20677V10.1208C44.6812 10.6755 34.5942 12.1354 30.7858 13.0098L43.9182 16.0081C46.0194 15.7769 53.8857 14.9308 56 14.7985V5.72205e-06C46.395 0.186191 23.802 3.42453 16.4715 8.13308Z" fill="#B42318"/>
<path d="M16.4715 8.13296V13.7391C24.8631 19.9512 43.3365 20.0758 55.589 25.3904C55.6074 25.3698 55.589 19.9602 55.589 19.9602C46.2821 15.7755 27.0313 15.6959 16.4715 8.13296Z" fill="#F04438"/>
<path d="M52.5541 27.7583C52.5541 27.7583 54.6474 26.3934 55.5876 25.3905C53.6067 24.5506 51.5727 23.8356 49.4981 23.2501C47.9761 23.7637 43.7895 24.6355 42.8899 24.8153C47.1829 25.4137 49.9749 26.6322 52.5541 27.7583Z" fill="#D92D20"/>
</g>
<defs>
<clipPath id="clip0_1389_11988">
<rect width="40" height="44" fill="white" transform="translate(56 44) rotate(-180)"/>
</clipPath>
</defs>
</svg>
