<svg width="290" height="60" viewBox="0 0 290 60" fill="none" xmlns="http://www.w3.org/2000/svg">
<path d="M1 6.86313C17.4362 20.1843 30.4185 25.8233 51.5047 24.8764C70.5467 24.0214 91.2602 14.8847 108.971 8.22672C130.898 -0.0164461 173.94 -6.45895 186.681 19.7811C196.574 40.1557 181.746 64.5197 158.41 57.8888C149.413 55.3325 144.764 43.1984 148.749 34.7802C153.053 25.6878 165.92 21.3046 174.819 19.2069C198.716 13.5733 214.638 36.1903 236.262 40.1626C256.466 43.8738 271.468 34.7304 286.767 22.3647C288.077 21.3055 287.406 28.3528 287.406 30.1154C287.406 36.5769 288.685 33.7091 288.685 28.8236C288.685 25.6815 290.323 19.001 286.128 20.7857C283.101 22.0734 276.738 22.3647 273.342 22.3647" stroke="url(#paint0_linear_898_36279)" stroke-width="2" stroke-linecap="round" stroke-dasharray="10 10"/>
<defs>
<linearGradient id="paint0_linear_898_36279" x1="1" y1="1" x2="291.474" y2="41.0653" gradientUnits="userSpaceOnUse">
<stop stop-color="#D5A1E4"/>
<stop offset="1" stop-color="#F1B1CD"/>
</linearGradient>
</defs>
</svg>
