<svg width="97" height="96" viewBox="0 0 97 96" fill="none" xmlns="http://www.w3.org/2000/svg">
<rect x="1.16675" y="0.5" width="95" height="95" rx="47.5" fill="url(#paint0_linear_1513_298)"/>
<path d="M44.7506 54.2557C43.7733 54.2519 42.9324 54.0114 42.2278 53.5341C41.5271 53.0568 40.9873 52.3655 40.6085 51.4602C40.2335 50.5549 40.0479 49.4659 40.0517 48.1932C40.0517 46.9242 40.2392 45.8428 40.6142 44.9489C40.993 44.0549 41.5328 43.375 42.2335 42.9091C42.9381 42.4394 43.7771 42.2045 44.7506 42.2045C45.724 42.2045 46.5612 42.4394 47.2619 42.9091C47.9665 43.3788 48.5081 44.0606 48.8869 44.9545C49.2657 45.8447 49.4532 46.9242 49.4494 48.1932C49.4494 49.4697 49.26 50.5606 48.8812 51.4659C48.5062 52.3712 47.9684 53.0625 47.2676 53.5398C46.5668 54.017 45.7278 54.2557 44.7506 54.2557ZM44.7506 52.2159C45.4172 52.2159 45.9494 51.8807 46.3471 51.2102C46.7449 50.5398 46.9418 49.5341 46.9381 48.1932C46.9381 47.3106 46.8471 46.5758 46.6653 45.9886C46.4873 45.4015 46.2335 44.9602 45.904 44.6648C45.5782 44.3693 45.1937 44.2216 44.7506 44.2216C44.0877 44.2216 43.5574 44.553 43.1596 45.2159C42.7619 45.8788 42.5612 46.8712 42.5574 48.1932C42.5574 49.0871 42.6464 49.8333 42.8244 50.4318C43.0062 51.0265 43.2619 51.4735 43.5915 51.7727C43.921 52.0682 44.3074 52.2159 44.7506 52.2159ZM56.2662 42.3636V54H53.806V44.6989H53.7378L51.073 46.3693V44.1875L53.9537 42.3636H56.2662Z" fill="url(#paint1_linear_1513_298)"/>
<rect x="1.16675" y="0.5" width="95" height="95" rx="47.5" stroke="url(#paint2_linear_1513_298)"/>
<defs>
<linearGradient id="paint0_linear_1513_298" x1="0.666748" y1="0" x2="96.6667" y2="96" gradientUnits="userSpaceOnUse">
<stop stop-color="#FFEAE4"/>
<stop offset="1" stop-color="#FADEE4"/>
</linearGradient>
<linearGradient id="paint1_linear_1513_298" x1="39.1667" y1="36" x2="62.5264" y2="54.4931" gradientUnits="userSpaceOnUse">
<stop stop-color="#FF9679"/>
<stop offset="1" stop-color="#E55C79"/>
</linearGradient>
<linearGradient id="paint2_linear_1513_298" x1="0.666748" y1="0" x2="96.6667" y2="96" gradientUnits="userSpaceOnUse">
<stop stop-color="#FFC0AF"/>
<stop offset="1" stop-color="#EF9DAF"/>
</linearGradient>
</defs>
</svg>
