<svg width="336" height="424" viewBox="0 0 336 424" fill="none" xmlns="http://www.w3.org/2000/svg">
<g clip-path="url(#clip0_1545_4687)">
<g filter="url(#filter0_b_1545_4687)">
<rect y="424" width="416" height="328" transform="rotate(-90 0 424)" fill="#D5A1E5"/>
</g>
</g>
<rect x="8.5" y="0.5" width="327" height="415" rx="23.5" fill="url(#paint0_linear_1545_4687)"/>
<rect x="140.5" y="24.5" width="63" height="63" rx="31.5" fill="url(#paint1_linear_1545_4687)"/>
<path d="M168.084 62.2557C167.107 62.2519 166.266 62.0114 165.561 61.5341C164.86 61.0568 164.321 60.3655 163.942 59.4602C163.567 58.5549 163.381 57.4659 163.385 56.1932C163.385 54.9242 163.572 53.8428 163.947 52.9489C164.326 52.0549 164.866 51.375 165.567 50.9091C166.271 50.4394 167.11 50.2045 168.084 50.2045C169.057 50.2045 169.894 50.4394 170.595 50.9091C171.3 51.3788 171.841 52.0606 172.22 52.9545C172.599 53.8447 172.786 54.9242 172.783 56.1932C172.783 57.4697 172.593 58.5606 172.214 59.4659C171.839 60.3712 171.302 61.0625 170.601 61.5398C169.9 62.017 169.061 62.2557 168.084 62.2557ZM168.084 60.2159C168.75 60.2159 169.283 59.8807 169.68 59.2102C170.078 58.5398 170.275 57.5341 170.271 56.1932C170.271 55.3106 170.18 54.5758 169.999 53.9886C169.821 53.4015 169.567 52.9602 169.237 52.6648C168.911 52.3693 168.527 52.2216 168.084 52.2216C167.421 52.2216 166.891 52.553 166.493 53.2159C166.095 53.8788 165.894 54.8712 165.891 56.1932C165.891 57.0871 165.98 57.8333 166.158 58.4318C166.339 59.0265 166.595 59.4735 166.925 59.7727C167.254 60.0682 167.641 60.2159 168.084 60.2159ZM179.599 50.3636V62H177.139V52.6989H177.071L174.406 54.3693V52.1875L177.287 50.3636H179.599Z" fill="url(#paint2_linear_1545_4687)"/>
<rect x="140.5" y="24.5" width="63" height="63" rx="31.5" stroke="#D5A1E5"/>
<path d="M142.802 105.156C142.702 104.811 142.563 104.505 142.383 104.24C142.203 103.97 141.983 103.743 141.722 103.558C141.466 103.369 141.173 103.224 140.841 103.125C140.515 103.026 140.153 102.976 139.755 102.976C139.011 102.976 138.358 103.161 137.795 103.53C137.236 103.899 136.8 104.437 136.488 105.142C136.175 105.843 136.019 106.7 136.019 107.713C136.019 108.726 136.173 109.588 136.481 110.298C136.788 111.009 137.224 111.551 137.787 111.925C138.351 112.294 139.016 112.479 139.783 112.479C140.479 112.479 141.073 112.356 141.566 112.109C142.063 111.858 142.442 111.506 142.702 111.051C142.967 110.597 143.1 110.059 143.1 109.439L143.725 109.531H139.975V107.216H146.062V109.048C146.062 110.327 145.792 111.425 145.252 112.344C144.712 113.258 143.969 113.963 143.022 114.46C142.075 114.953 140.991 115.199 139.769 115.199C138.405 115.199 137.207 114.898 136.175 114.297C135.143 113.691 134.338 112.831 133.76 111.719C133.188 110.601 132.901 109.276 132.901 107.741C132.901 106.562 133.072 105.511 133.412 104.588C133.758 103.66 134.241 102.874 134.861 102.23C135.482 101.586 136.204 101.096 137.028 100.76C137.851 100.424 138.744 100.256 139.705 100.256C140.529 100.256 141.296 100.376 142.006 100.618C142.716 100.855 143.346 101.191 143.895 101.626C144.449 102.062 144.902 102.58 145.252 103.182C145.602 103.778 145.827 104.437 145.927 105.156H142.802ZM159.849 103.487H161.603C161.598 104.311 161.475 105.002 161.234 105.561C160.992 106.115 160.583 106.532 160.005 106.811C159.432 107.09 158.649 107.23 157.654 107.23V105.881C158.312 105.881 158.795 105.793 159.103 105.618C159.416 105.443 159.617 105.18 159.707 104.83C159.802 104.474 159.849 104.027 159.849 103.487ZM155.382 110.355V104.091H158.4V115H155.502V113.018H155.389C155.142 113.658 154.733 114.171 154.16 114.56C153.592 114.948 152.898 115.142 152.079 115.142C151.35 115.142 150.708 114.976 150.154 114.645C149.6 114.313 149.167 113.842 148.855 113.232C148.547 112.621 148.391 111.889 148.386 111.037V104.091H151.411V110.497C151.411 111.141 151.582 111.65 151.923 112.024C152.268 112.398 152.728 112.585 153.301 112.585C153.665 112.585 154.004 112.502 154.316 112.337C154.633 112.166 154.889 111.915 155.083 111.584C155.282 111.252 155.382 110.843 155.382 110.355ZM154.522 102.528H152.278L152.122 101.25C152.624 101.226 152.981 101.16 153.194 101.051C153.407 100.937 153.511 100.788 153.507 100.604C153.511 100.348 153.376 100.175 153.102 100.085C152.832 99.9953 152.493 99.9503 152.086 99.9503L152.164 98.5795C153.428 98.5795 154.39 98.75 155.048 99.0909C155.711 99.4318 156.04 99.9053 156.035 100.511C156.04 100.942 155.883 101.269 155.566 101.491C155.254 101.709 154.906 101.847 154.522 101.903V102.528ZM162.494 115V104.091H165.52V115H162.494ZM164.014 102.685C163.565 102.685 163.179 102.536 162.857 102.237C162.539 101.934 162.381 101.572 162.381 101.151C162.381 100.734 162.539 100.376 162.857 100.078C163.179 99.7751 163.565 99.6236 164.014 99.6236C164.464 99.6236 164.848 99.7751 165.165 100.078C165.487 100.376 165.648 100.734 165.648 101.151C165.648 101.572 165.487 101.934 165.165 102.237C164.848 102.536 164.464 102.685 164.014 102.685ZM172.573 115V104.091H175.456V106.016H175.584C175.811 105.376 176.19 104.872 176.72 104.503C177.251 104.134 177.885 103.949 178.624 103.949C179.372 103.949 180.009 104.136 180.534 104.51C181.06 104.879 181.41 105.381 181.585 106.016H181.699C181.922 105.391 182.324 104.891 182.906 104.517C183.494 104.138 184.187 103.949 184.987 103.949C186.005 103.949 186.832 104.273 187.466 104.922C188.105 105.566 188.425 106.48 188.425 107.663V115H185.406V108.26C185.406 107.654 185.245 107.199 184.923 106.896C184.602 106.593 184.199 106.442 183.716 106.442C183.167 106.442 182.738 106.617 182.431 106.967C182.123 107.313 181.969 107.77 181.969 108.338V115H179.036V108.196C179.036 107.661 178.882 107.235 178.574 106.918C178.271 106.6 177.871 106.442 177.374 106.442C177.038 106.442 176.735 106.527 176.465 106.697C176.2 106.863 175.989 107.098 175.833 107.401C175.676 107.699 175.598 108.049 175.598 108.452V115H172.573ZM193.926 115.206C193.23 115.206 192.609 115.085 192.065 114.844C191.52 114.598 191.089 114.235 190.772 113.757C190.46 113.274 190.303 112.673 190.303 111.953C190.303 111.347 190.415 110.838 190.637 110.426C190.86 110.014 191.163 109.683 191.546 109.432C191.93 109.181 192.365 108.991 192.853 108.864C193.346 108.736 193.862 108.646 194.401 108.594C195.036 108.527 195.547 108.466 195.936 108.409C196.324 108.348 196.606 108.258 196.781 108.139C196.956 108.021 197.044 107.846 197.044 107.614V107.571C197.044 107.121 196.901 106.773 196.617 106.527C196.338 106.281 195.94 106.158 195.424 106.158C194.88 106.158 194.446 106.278 194.124 106.52C193.802 106.757 193.589 107.055 193.485 107.415L190.687 107.188C190.829 106.525 191.108 105.952 191.525 105.469C191.942 104.981 192.479 104.607 193.137 104.347C193.8 104.081 194.567 103.949 195.438 103.949C196.044 103.949 196.624 104.02 197.178 104.162C197.737 104.304 198.232 104.524 198.663 104.822C199.098 105.121 199.442 105.504 199.693 105.973C199.944 106.437 200.069 106.993 200.069 107.642V115H197.2V113.487H197.115C196.939 113.828 196.705 114.129 196.411 114.389C196.118 114.645 195.765 114.846 195.353 114.993C194.941 115.135 194.465 115.206 193.926 115.206ZM194.792 113.118C195.237 113.118 195.63 113.03 195.971 112.855C196.312 112.675 196.579 112.434 196.774 112.131C196.968 111.828 197.065 111.484 197.065 111.101V109.943C196.97 110.005 196.84 110.062 196.674 110.114C196.513 110.161 196.331 110.206 196.127 110.249C195.924 110.286 195.72 110.322 195.517 110.355C195.313 110.384 195.128 110.41 194.963 110.433C194.607 110.485 194.297 110.568 194.032 110.682C193.767 110.795 193.561 110.949 193.414 111.143C193.267 111.333 193.194 111.57 193.194 111.854C193.194 112.266 193.343 112.58 193.642 112.798C193.945 113.011 194.328 113.118 194.792 113.118ZM202.416 115V104.091H205.442V115H202.416ZM203.936 102.685C203.486 102.685 203.101 102.536 202.779 102.237C202.461 101.934 202.303 101.572 202.303 101.151C202.303 100.734 202.461 100.376 202.779 100.078C203.101 99.7751 203.486 99.6236 203.936 99.6236C204.386 99.6236 204.77 99.7751 205.087 100.078C205.409 100.376 205.57 100.734 205.57 101.151C205.57 101.572 205.409 101.934 205.087 102.237C204.77 102.536 204.386 102.685 203.936 102.685ZM210.891 100.455V115H207.866V100.455H210.891Z" fill="#505050"/>
<rect x="140.5" y="160.5" width="63" height="63" rx="31.5" fill="url(#paint3_linear_1545_4687)"/>
<path d="M166.959 198.256C165.982 198.252 165.141 198.011 164.436 197.534C163.735 197.057 163.196 196.366 162.817 195.46C162.442 194.555 162.256 193.466 162.26 192.193C162.26 190.924 162.447 189.843 162.822 188.949C163.201 188.055 163.741 187.375 164.442 186.909C165.146 186.439 165.985 186.205 166.959 186.205C167.932 186.205 168.769 186.439 169.47 186.909C170.175 187.379 170.716 188.061 171.095 188.955C171.474 189.845 171.661 190.924 171.658 192.193C171.658 193.47 171.468 194.561 171.089 195.466C170.714 196.371 170.177 197.062 169.476 197.54C168.775 198.017 167.936 198.256 166.959 198.256ZM166.959 196.216C167.625 196.216 168.158 195.881 168.555 195.21C168.953 194.54 169.15 193.534 169.146 192.193C169.146 191.311 169.055 190.576 168.874 189.989C168.696 189.402 168.442 188.96 168.112 188.665C167.786 188.369 167.402 188.222 166.959 188.222C166.296 188.222 165.766 188.553 165.368 189.216C164.97 189.879 164.769 190.871 164.766 192.193C164.766 193.087 164.855 193.833 165.033 194.432C165.214 195.027 165.47 195.473 165.8 195.773C166.129 196.068 166.516 196.216 166.959 196.216ZM173.412 198V196.227L177.554 192.392C177.906 192.051 178.202 191.744 178.44 191.472C178.683 191.199 178.866 190.932 178.991 190.67C179.116 190.405 179.179 190.119 179.179 189.812C179.179 189.472 179.101 189.178 178.946 188.932C178.791 188.682 178.579 188.491 178.31 188.358C178.041 188.222 177.736 188.153 177.395 188.153C177.039 188.153 176.728 188.225 176.463 188.369C176.198 188.513 175.993 188.72 175.849 188.989C175.705 189.258 175.634 189.578 175.634 189.949H173.298C173.298 189.187 173.471 188.527 173.815 187.966C174.16 187.405 174.643 186.972 175.264 186.665C175.885 186.358 176.601 186.205 177.412 186.205C178.245 186.205 178.971 186.352 179.588 186.648C180.209 186.939 180.692 187.345 181.037 187.864C181.382 188.383 181.554 188.977 181.554 189.648C181.554 190.087 181.467 190.521 181.293 190.949C181.122 191.377 180.817 191.852 180.378 192.375C179.938 192.894 179.319 193.517 178.52 194.244L176.821 195.909V195.989H181.707V198H173.412Z" fill="url(#paint4_linear_1545_4687)"/>
<rect x="140.5" y="160.5" width="63" height="63" rx="31.5" stroke="#D5A1E5"/>
<path d="M130.532 236.455L133.466 241.412H133.579L136.527 236.455H140L135.561 243.727L140.099 251H136.562L133.579 246.036H133.466L130.483 251H126.96L131.513 243.727L127.045 236.455H130.532ZM145 251.206C144.304 251.206 143.684 251.085 143.139 250.844C142.595 250.598 142.164 250.235 141.846 249.757C141.534 249.274 141.378 248.673 141.378 247.953C141.378 247.347 141.489 246.838 141.711 246.426C141.934 246.014 142.237 245.683 142.621 245.432C143.004 245.181 143.44 244.991 143.927 244.864C144.42 244.736 144.936 244.646 145.476 244.594C146.11 244.527 146.622 244.466 147.01 244.409C147.398 244.348 147.68 244.258 147.855 244.139C148.03 244.021 148.118 243.846 148.118 243.614V243.571C148.118 243.121 147.976 242.773 147.692 242.527C147.412 242.281 147.015 242.158 146.498 242.158C145.954 242.158 145.521 242.278 145.199 242.52C144.877 242.757 144.664 243.055 144.559 243.415L141.761 243.188C141.903 242.525 142.183 241.952 142.599 241.469C143.016 240.981 143.553 240.607 144.211 240.347C144.874 240.081 145.641 239.949 146.513 239.949C147.119 239.949 147.699 240.02 148.253 240.162C148.811 240.304 149.306 240.524 149.737 240.822C150.173 241.121 150.516 241.504 150.767 241.973C151.018 242.437 151.143 242.993 151.143 243.642V251H148.274V249.487H148.189C148.014 249.828 147.779 250.129 147.486 250.389C147.192 250.645 146.839 250.846 146.427 250.993C146.015 251.135 145.54 251.206 145 251.206ZM145.866 249.118C146.311 249.118 146.704 249.03 147.045 248.855C147.386 248.675 147.654 248.434 147.848 248.131C148.042 247.828 148.139 247.484 148.139 247.101V245.943C148.044 246.005 147.914 246.062 147.748 246.114C147.587 246.161 147.405 246.206 147.202 246.249C146.998 246.286 146.794 246.322 146.591 246.355C146.387 246.384 146.202 246.41 146.037 246.433C145.682 246.485 145.372 246.568 145.106 246.682C144.841 246.795 144.635 246.949 144.488 247.143C144.342 247.333 144.268 247.57 144.268 247.854C144.268 248.266 144.417 248.58 144.716 248.798C145.019 249.011 145.402 249.118 145.866 249.118ZM145.54 238.685L147.045 235.453H149.844L147.677 238.685H145.54ZM158.42 251.213C157.302 251.213 156.341 250.976 155.536 250.503C154.736 250.025 154.12 249.362 153.689 248.514C153.263 247.667 153.05 246.691 153.05 245.588C153.05 244.471 153.266 243.491 153.697 242.648C154.132 241.8 154.75 241.14 155.55 240.666C156.35 240.188 157.302 239.949 158.405 239.949C159.357 239.949 160.19 240.122 160.905 240.467C161.62 240.813 162.186 241.298 162.603 241.923C163.019 242.548 163.249 243.282 163.292 244.125H160.437C160.356 243.58 160.143 243.143 159.797 242.811C159.456 242.475 159.009 242.307 158.455 242.307C157.986 242.307 157.577 242.435 157.226 242.69C156.881 242.941 156.611 243.308 156.417 243.791C156.223 244.274 156.126 244.859 156.126 245.545C156.126 246.241 156.22 246.833 156.41 247.321C156.604 247.809 156.876 248.18 157.226 248.436C157.577 248.692 157.986 248.82 158.455 248.82C158.801 248.82 159.111 248.749 159.385 248.607C159.665 248.464 159.894 248.259 160.074 247.989C160.259 247.714 160.38 247.385 160.437 247.001H163.292C163.244 247.835 163.017 248.569 162.61 249.203C162.207 249.833 161.651 250.325 160.941 250.68C160.231 251.036 159.39 251.213 158.42 251.213ZM172.883 244.693V251H169.858V240.091H172.741V242.016H172.869C173.111 241.381 173.515 240.879 174.084 240.51C174.652 240.136 175.341 239.949 176.15 239.949C176.908 239.949 177.568 240.115 178.132 240.446C178.695 240.777 179.133 241.251 179.446 241.866C179.758 242.477 179.915 243.206 179.915 244.054V251H176.889V244.594C176.894 243.926 176.723 243.405 176.378 243.031C176.032 242.652 175.556 242.463 174.95 242.463C174.543 242.463 174.183 242.551 173.871 242.726C173.563 242.901 173.321 243.157 173.146 243.493C172.976 243.824 172.888 244.224 172.883 244.693ZM185.325 244.693V251H182.299V236.455H185.24V242.016H185.367C185.614 241.372 186.011 240.867 186.561 240.503C187.11 240.134 187.799 239.949 188.627 239.949C189.385 239.949 190.045 240.115 190.609 240.446C191.177 240.773 191.617 241.244 191.93 241.859C192.247 242.47 192.403 243.202 192.399 244.054V251H189.373V244.594C189.378 243.921 189.207 243.398 188.862 243.024C188.521 242.65 188.043 242.463 187.427 242.463C187.015 242.463 186.651 242.551 186.333 242.726C186.021 242.901 185.775 243.157 185.595 243.493C185.419 243.824 185.329 244.224 185.325 244.693ZM197.89 251.206C197.194 251.206 196.574 251.085 196.03 250.844C195.485 250.598 195.054 250.235 194.737 249.757C194.425 249.274 194.268 248.673 194.268 247.953C194.268 247.347 194.38 246.838 194.602 246.426C194.825 246.014 195.128 245.683 195.511 245.432C195.895 245.181 196.33 244.991 196.818 244.864C197.31 244.736 197.827 244.646 198.366 244.594C199.001 244.527 199.512 244.466 199.9 244.409C200.289 244.348 200.57 244.258 200.746 244.139C200.921 244.021 201.008 243.846 201.008 243.614V243.571C201.008 243.121 200.866 242.773 200.582 242.527C200.303 242.281 199.905 242.158 199.389 242.158C198.845 242.158 198.411 242.278 198.089 242.52C197.767 242.757 197.554 243.055 197.45 243.415L194.652 243.188C194.794 242.525 195.073 241.952 195.49 241.469C195.907 240.981 196.444 240.607 197.102 240.347C197.765 240.081 198.532 239.949 199.403 239.949C200.009 239.949 200.589 240.02 201.143 240.162C201.702 240.304 202.197 240.524 202.628 240.822C203.063 241.121 203.407 241.504 203.657 241.973C203.908 242.437 204.034 242.993 204.034 243.642V251H201.165V249.487H201.079C200.904 249.828 200.67 250.129 200.376 250.389C200.083 250.645 199.73 250.846 199.318 250.993C198.906 251.135 198.43 251.206 197.89 251.206ZM198.757 249.118C199.202 249.118 199.595 249.03 199.936 248.855C200.277 248.675 200.544 248.434 200.738 248.131C200.933 247.828 201.03 247.484 201.03 247.101V245.943C200.935 246.005 200.805 246.062 200.639 246.114C200.478 246.161 200.296 246.206 200.092 246.249C199.889 246.286 199.685 246.322 199.481 246.355C199.278 246.384 199.093 246.41 198.927 246.433C198.572 246.485 198.262 246.568 197.997 246.682C197.732 246.795 197.526 246.949 197.379 247.143C197.232 247.333 197.159 247.57 197.159 247.854C197.159 248.266 197.308 248.58 197.606 248.798C197.909 249.011 198.293 249.118 198.757 249.118ZM200.944 238.784L199.517 237.051L198.089 238.784H195.511V238.685L198.388 235.56H200.639L203.523 238.685V238.784H200.944ZM199.396 255.084C198.946 255.084 198.56 254.935 198.238 254.636C197.916 254.338 197.756 253.978 197.756 253.557C197.756 253.135 197.916 252.776 198.238 252.477C198.56 252.179 198.946 252.03 199.396 252.03C199.846 252.03 200.229 252.179 200.547 252.477C200.869 252.776 201.03 253.135 201.03 253.557C201.03 253.978 200.869 254.338 200.547 254.636C200.229 254.935 199.846 255.084 199.396 255.084ZM209.407 244.693V251H206.381V240.091H209.265V242.016H209.393C209.634 241.381 210.039 240.879 210.607 240.51C211.175 240.136 211.864 239.949 212.674 239.949C213.431 239.949 214.092 240.115 214.655 240.446C215.219 240.777 215.657 241.251 215.969 241.866C216.282 242.477 216.438 243.206 216.438 244.054V251H213.412V244.594C213.417 243.926 213.247 243.405 212.901 243.031C212.555 242.652 212.08 242.463 211.474 242.463C211.066 242.463 210.706 242.551 210.394 242.726C210.086 242.901 209.845 243.157 209.67 243.493C209.499 243.824 209.412 244.224 209.407 244.693Z" fill="#505050"/>
<rect x="140.5" y="296.5" width="63" height="63" rx="31.5" fill="url(#paint5_linear_1545_4687)"/>
<path d="M166.724 334.256C165.747 334.252 164.906 334.011 164.202 333.534C163.501 333.057 162.961 332.366 162.582 331.46C162.207 330.555 162.022 329.466 162.026 328.193C162.026 326.924 162.213 325.843 162.588 324.949C162.967 324.055 163.507 323.375 164.207 322.909C164.912 322.439 165.751 322.205 166.724 322.205C167.698 322.205 168.535 322.439 169.236 322.909C169.94 323.379 170.482 324.061 170.861 324.955C171.24 325.845 171.427 326.924 171.423 328.193C171.423 329.47 171.234 330.561 170.855 331.466C170.48 332.371 169.942 333.062 169.241 333.54C168.541 334.017 167.702 334.256 166.724 334.256ZM166.724 332.216C167.391 332.216 167.923 331.881 168.321 331.21C168.719 330.54 168.916 329.534 168.912 328.193C168.912 327.311 168.821 326.576 168.639 325.989C168.461 325.402 168.207 324.96 167.878 324.665C167.552 324.369 167.168 324.222 166.724 324.222C166.062 324.222 165.531 324.553 165.134 325.216C164.736 325.879 164.535 326.871 164.531 328.193C164.531 329.087 164.62 329.833 164.798 330.432C164.98 331.027 165.236 331.473 165.565 331.773C165.895 332.068 166.281 332.216 166.724 332.216ZM177.479 334.159C176.63 334.159 175.875 334.013 175.212 333.722C174.553 333.426 174.032 333.021 173.649 332.506C173.27 331.987 173.075 331.388 173.064 330.71H175.541C175.556 330.994 175.649 331.244 175.82 331.46C175.994 331.672 176.225 331.837 176.513 331.955C176.801 332.072 177.125 332.131 177.484 332.131C177.859 332.131 178.191 332.064 178.479 331.932C178.767 331.799 178.992 331.616 179.155 331.381C179.318 331.146 179.399 330.875 179.399 330.568C179.399 330.258 179.312 329.983 179.138 329.744C178.967 329.502 178.721 329.312 178.399 329.176C178.081 329.04 177.702 328.972 177.263 328.972H176.178V327.165H177.263C177.634 327.165 177.962 327.1 178.246 326.972C178.534 326.843 178.757 326.665 178.916 326.438C179.075 326.206 179.155 325.938 179.155 325.631C179.155 325.339 179.085 325.083 178.945 324.864C178.808 324.64 178.615 324.466 178.365 324.341C178.119 324.216 177.831 324.153 177.501 324.153C177.168 324.153 176.863 324.214 176.587 324.335C176.31 324.453 176.089 324.621 175.922 324.841C175.755 325.061 175.666 325.318 175.655 325.614H173.297C173.308 324.943 173.5 324.352 173.871 323.841C174.242 323.33 174.742 322.93 175.371 322.642C176.003 322.35 176.717 322.205 177.513 322.205C178.316 322.205 179.018 322.35 179.621 322.642C180.223 322.934 180.691 323.328 181.024 323.824C181.361 324.316 181.528 324.869 181.524 325.483C181.528 326.134 181.325 326.678 180.916 327.114C180.511 327.549 179.982 327.826 179.331 327.943V328.034C180.187 328.144 180.839 328.441 181.286 328.926C181.736 329.407 181.96 330.009 181.956 330.733C181.96 331.396 181.768 331.985 181.382 332.5C181 333.015 180.471 333.42 179.797 333.716C179.123 334.011 178.35 334.159 177.479 334.159Z" fill="url(#paint6_linear_1545_4687)"/>
<rect x="140.5" y="296.5" width="63" height="63" rx="31.5" stroke="#D5A1E5"/>
<path d="M133.03 387V372.455H138.854C139.924 372.455 140.816 372.613 141.531 372.93C142.246 373.248 142.784 373.688 143.143 374.251C143.503 374.81 143.683 375.454 143.683 376.183C143.683 376.751 143.57 377.251 143.342 377.682C143.115 378.108 142.803 378.458 142.405 378.733C142.012 379.003 141.562 379.195 141.055 379.308V379.45C141.609 379.474 142.128 379.63 142.611 379.919C143.098 380.208 143.494 380.613 143.797 381.134C144.1 381.65 144.251 382.265 144.251 382.98C144.251 383.752 144.06 384.441 143.676 385.047C143.297 385.648 142.736 386.124 141.993 386.474C141.25 386.825 140.333 387 139.244 387H133.03ZM136.105 384.486H138.612C139.469 384.486 140.094 384.322 140.487 383.996C140.88 383.664 141.077 383.224 141.077 382.675C141.077 382.272 140.98 381.917 140.786 381.609C140.591 381.302 140.314 381.06 139.955 380.885C139.599 380.71 139.176 380.622 138.683 380.622H136.105V384.486ZM136.105 378.541H138.385C138.806 378.541 139.18 378.468 139.507 378.321C139.839 378.17 140.099 377.956 140.288 377.682C140.482 377.407 140.58 377.078 140.58 376.695C140.58 376.169 140.393 375.745 140.018 375.423C139.649 375.101 139.124 374.94 138.442 374.94H136.105V378.541ZM149.306 387.206C148.61 387.206 147.99 387.085 147.446 386.844C146.901 386.598 146.47 386.235 146.153 385.757C145.841 385.274 145.684 384.673 145.684 383.953C145.684 383.347 145.796 382.838 146.018 382.426C146.241 382.014 146.544 381.683 146.927 381.432C147.311 381.181 147.746 380.991 148.234 380.864C148.726 380.736 149.243 380.646 149.782 380.594C150.417 380.527 150.928 380.466 151.316 380.409C151.705 380.348 151.986 380.258 152.162 380.139C152.337 380.021 152.424 379.846 152.424 379.614V379.571C152.424 379.121 152.282 378.773 151.998 378.527C151.719 378.281 151.321 378.158 150.805 378.158C150.261 378.158 149.827 378.278 149.505 378.52C149.183 378.757 148.97 379.055 148.866 379.415L146.068 379.188C146.21 378.525 146.489 377.952 146.906 377.469C147.323 376.981 147.86 376.607 148.518 376.347C149.181 376.081 149.948 375.949 150.819 375.949C151.425 375.949 152.005 376.02 152.559 376.162C153.118 376.304 153.613 376.524 154.044 376.822C154.479 377.121 154.823 377.504 155.074 377.973C155.324 378.437 155.45 378.993 155.45 379.642V387H152.581V385.487H152.495C152.32 385.828 152.086 386.129 151.792 386.389C151.499 386.645 151.146 386.846 150.734 386.993C150.322 387.135 149.846 387.206 149.306 387.206ZM150.173 385.118C150.618 385.118 151.011 385.03 151.352 384.855C151.693 384.675 151.96 384.434 152.154 384.131C152.349 383.828 152.446 383.484 152.446 383.101V381.943C152.351 382.005 152.221 382.062 152.055 382.114C151.894 382.161 151.712 382.206 151.508 382.249C151.305 382.286 151.101 382.322 150.897 382.355C150.694 382.384 150.509 382.41 150.343 382.433C149.988 382.485 149.678 382.568 149.413 382.682C149.148 382.795 148.942 382.949 148.795 383.143C148.648 383.333 148.575 383.57 148.575 383.854C148.575 384.266 148.724 384.58 149.022 384.798C149.325 385.011 149.709 385.118 150.173 385.118ZM152.467 372.632H154.434C154.434 373.323 154.115 373.887 153.475 374.322C152.836 374.753 151.975 374.969 150.89 374.969C149.811 374.969 148.954 374.753 148.319 374.322C147.69 373.887 147.377 373.323 147.382 372.632H149.314C149.309 372.911 149.427 373.167 149.669 373.399C149.91 373.626 150.317 373.74 150.89 373.74C151.463 373.74 151.868 373.626 152.105 373.399C152.346 373.167 152.467 372.911 152.467 372.632ZM150.066 372.646L151.324 370.828H153.404L151.643 372.646H150.066ZM163.6 376.091V378.364H157.03V376.091H163.6ZM158.522 373.477H161.547V383.648C161.547 383.927 161.59 384.145 161.675 384.301C161.76 384.453 161.879 384.559 162.03 384.621C162.186 384.682 162.366 384.713 162.57 384.713C162.712 384.713 162.854 384.701 162.996 384.678C163.138 384.649 163.247 384.628 163.323 384.614L163.799 386.865C163.647 386.912 163.434 386.967 163.159 387.028C162.885 387.095 162.551 387.135 162.158 387.149C161.429 387.178 160.79 387.08 160.24 386.858C159.696 386.635 159.272 386.29 158.969 385.821C158.666 385.352 158.517 384.76 158.522 384.045V373.477ZM174.219 387.178C173.391 387.178 172.64 386.964 171.968 386.538C171.3 386.107 170.77 385.475 170.377 384.642C169.989 383.804 169.795 382.777 169.795 381.56C169.795 380.31 169.996 379.27 170.398 378.442C170.801 377.608 171.336 376.986 172.004 376.574C172.676 376.157 173.412 375.949 174.212 375.949C174.823 375.949 175.332 376.053 175.739 376.261C176.151 376.465 176.483 376.721 176.734 377.028C176.989 377.331 177.183 377.63 177.316 377.923H177.408V372.455H180.427V387H177.444V385.253H177.316C177.174 385.556 176.973 385.857 176.712 386.155C176.457 386.448 176.123 386.692 175.711 386.886C175.304 387.08 174.807 387.178 174.219 387.178ZM175.178 384.77C175.666 384.77 176.078 384.637 176.414 384.372C176.755 384.102 177.015 383.726 177.195 383.243C177.38 382.76 177.472 382.194 177.472 381.545C177.472 380.897 177.382 380.333 177.202 379.855C177.022 379.377 176.762 379.008 176.421 378.747C176.08 378.487 175.666 378.357 175.178 378.357C174.681 378.357 174.262 378.491 173.921 378.761C173.58 379.031 173.322 379.405 173.147 379.884C172.972 380.362 172.884 380.916 172.884 381.545C172.884 382.18 172.972 382.741 173.147 383.229C173.327 383.712 173.585 384.09 173.921 384.365C174.262 384.635 174.681 384.77 175.178 384.77ZM174.582 375.345V373.562H181.67V375.345H174.582ZM186.025 387.206C185.329 387.206 184.709 387.085 184.164 386.844C183.62 386.598 183.189 386.235 182.872 385.757C182.559 385.274 182.403 384.673 182.403 383.953C182.403 383.347 182.514 382.838 182.737 382.426C182.959 382.014 183.262 381.683 183.646 381.432C184.029 381.181 184.465 380.991 184.953 380.864C185.445 380.736 185.961 380.646 186.501 380.594C187.136 380.527 187.647 380.466 188.035 380.409C188.423 380.348 188.705 380.258 188.88 380.139C189.056 380.021 189.143 379.846 189.143 379.614V379.571C189.143 379.121 189.001 378.773 188.717 378.527C188.438 378.281 188.04 378.158 187.524 378.158C186.979 378.158 186.546 378.278 186.224 378.52C185.902 378.757 185.689 379.055 185.585 379.415L182.787 379.188C182.929 378.525 183.208 377.952 183.625 377.469C184.041 376.981 184.579 376.607 185.237 376.347C185.9 376.081 186.667 375.949 187.538 375.949C188.144 375.949 188.724 376.02 189.278 376.162C189.837 376.304 190.332 376.524 190.762 376.822C191.198 377.121 191.541 377.504 191.792 377.973C192.043 378.437 192.169 378.993 192.169 379.642V387H189.299V385.487H189.214C189.039 385.828 188.805 386.129 188.511 386.389C188.217 386.645 187.865 386.846 187.453 386.993C187.041 387.135 186.565 387.206 186.025 387.206ZM186.892 385.118C187.337 385.118 187.73 385.03 188.071 384.855C188.412 384.675 188.679 384.434 188.873 384.131C189.067 383.828 189.164 383.484 189.164 383.101V381.943C189.07 382.005 188.94 382.062 188.774 382.114C188.613 382.161 188.431 382.206 188.227 382.249C188.023 382.286 187.82 382.322 187.616 382.355C187.413 382.384 187.228 382.41 187.062 382.433C186.707 382.485 186.397 382.568 186.132 382.682C185.867 382.795 185.661 382.949 185.514 383.143C185.367 383.333 185.294 383.57 185.294 383.854C185.294 384.266 185.443 384.58 185.741 384.798C186.044 385.011 186.428 385.118 186.892 385.118ZM188.447 372.732L191.331 374.94H189.15L187.645 373.747L186.132 374.94H183.966L186.821 372.732H188.447ZM183.035 371.034L184.704 373.69H183.014L180.713 371.034H183.035ZM201.512 382.355V376.091H204.537V387H201.632V385.018H201.519C201.273 385.658 200.863 386.171 200.29 386.56C199.722 386.948 199.028 387.142 198.209 387.142C197.48 387.142 196.838 386.976 196.284 386.645C195.73 386.313 195.297 385.842 194.985 385.232C194.677 384.621 194.521 383.889 194.516 383.037V376.091H197.542V382.497C197.546 383.141 197.719 383.65 198.06 384.024C198.401 384.398 198.858 384.585 199.431 384.585C199.795 384.585 200.136 384.502 200.453 384.337C200.771 384.166 201.026 383.915 201.221 383.584C201.419 383.252 201.516 382.843 201.512 382.355ZM210.572 372.455L210.295 382.639H207.696L207.412 372.455H210.572ZM208.996 387.185C208.527 387.185 208.125 387.019 207.788 386.688C207.452 386.351 207.286 385.949 207.291 385.48C207.286 385.016 207.452 384.618 207.788 384.287C208.125 383.955 208.527 383.79 208.996 383.79C209.446 383.79 209.841 383.955 210.182 384.287C210.523 384.618 210.696 385.016 210.7 385.48C210.696 385.793 210.613 386.079 210.452 386.339C210.295 386.595 210.089 386.801 209.834 386.957C209.578 387.109 209.299 387.185 208.996 387.185Z" fill="#505050"/>
<rect x="8.5" y="0.5" width="327" height="415" rx="23.5" stroke="url(#paint7_linear_1545_4687)"/>
<path d="M176.787 91C174.031 94.9949 172.864 98.1503 173.06 103.275C173.237 107.904 175.127 112.938 176.505 117.243C178.21 122.572 179.543 133.034 174.114 136.131C169.899 138.535 164.858 134.931 166.23 129.259C166.759 127.073 169.269 125.943 171.011 126.911C172.892 127.957 173.799 131.085 174.233 133.248C175.399 139.056 170.719 142.926 169.897 148.182C169.13 153.092 171.021 156.739 173.58 160.457C173.799 160.776 172.341 160.613 171.976 160.613C170.639 160.613 171.233 160.923 172.243 160.923C172.893 160.923 174.276 161.322 173.906 160.302C173.64 159.566 173.58 158.02 173.58 157.194" stroke="#D5A1E5" stroke-linecap="round" stroke-dasharray="10 10"/>
<path d="M175.226 219C178.342 224.07 178.433 230.594 177.435 238.057C176.694 243.6 172.173 239.586 170.032 239.146C161.885 237.474 168.392 272.627 169.674 277.78C169.91 278.728 172.49 287.258 172.614 286.913C172.912 286.083 173.454 280.785 173.454 282.26C173.454 284.44 172.894 286.502 172.894 288.72C172.894 289.822 170.011 287.347 169.284 286.913" stroke="#D5A1E5" stroke-linecap="round" stroke-dasharray="10 10"/>
<path opacity="0.5" fill-rule="evenodd" clip-rule="evenodd" d="M281.001 416H32C18.7451 416 8 405.255 8 392V348C9.67631 350.092 11.5227 353.025 13.5422 357.016C13.9277 357.777 14.3031 358.522 14.6702 359.249C24.0679 377.882 27.9924 385.663 53.6985 394.813C79.8117 404.108 99.4648 410.276 133.928 410.03C150.498 409.912 159.647 408.83 168.879 407.737C178.847 406.558 188.911 405.367 208.52 405.367C238.498 405.367 269.152 410.996 281.001 416Z" fill="url(#paint8_linear_1545_4687)"/>
<path opacity="0.5" fill-rule="evenodd" clip-rule="evenodd" d="M153 416H32C18.7452 416 8 405.255 8 392V286C8.90425 290.069 9.88598 295.971 10.9363 304.23C16.8053 350.381 17.4782 353.58 31.6983 381.059C43.6667 404.187 55.6664 407.001 73.9269 406.538C82.7333 406.315 87.7687 403.718 92.8668 401.089C98.3399 398.267 103.885 395.407 114.246 395.407C130.434 395.407 146.995 406.434 153 416Z" fill="url(#paint9_linear_1545_4687)"/>
<path opacity="0.5" fill-rule="evenodd" clip-rule="evenodd" d="M335.873 68.0007C335.958 67.1803 336.001 66.3477 336.001 65.5049V23.9994C336.001 10.7446 325.256 -0.000579834 312.001 -0.000579834H164.001C171.023 5.16524 189.72 11.434 208.794 11.434C221.106 11.434 227.732 10.0547 234.278 8.69213C240.359 7.42619 246.372 6.17473 256.81 6.05742C278.483 5.81386 293.188 6.27126 309.241 17.0802C323.729 26.8354 325.231 32.2996 330.086 49.9643C330.805 52.5799 331.597 55.463 332.516 58.667C333.713 62.8408 334.835 65.8702 335.873 68.0007Z" fill="url(#paint10_linear_1545_4687)"/>
<path opacity="0.5" fill-rule="evenodd" clip-rule="evenodd" d="M58.0002 0.000427246H312.001C325.256 0.000427246 336.001 10.7456 336.001 24.0004V75.0006C334.273 72.6918 332.365 69.4307 330.276 64.9656C329.884 64.1277 329.502 63.3087 329.128 62.508C319.567 42.0087 315.574 33.4481 289.419 23.381C262.851 13.1544 242.855 6.36908 207.791 6.63911C190.932 6.76894 181.623 7.95999 172.231 9.16177C162.089 10.4595 151.849 11.7698 131.898 11.7698C101.268 11.7698 69.9427 5.52289 58.0002 0.000427246Z" fill="url(#paint11_linear_1545_4687)"/>
<defs>
<filter id="filter0_b_1545_4687" x="-148" y="-140" width="624" height="712" filterUnits="userSpaceOnUse" color-interpolation-filters="sRGB">
<feFlood flood-opacity="0" result="BackgroundImageFix"/>
<feGaussianBlur in="BackgroundImageFix" stdDeviation="74"/>
<feComposite in2="SourceAlpha" operator="in" result="effect1_backgroundBlur_1545_4687"/>
<feBlend mode="normal" in="SourceGraphic" in2="effect1_backgroundBlur_1545_4687" result="shape"/>
</filter>
<linearGradient id="paint0_linear_1545_4687" x1="8" y1="0" x2="412.521" y2="318.949" gradientUnits="userSpaceOnUse">
<stop stop-color="#FFF4F2"/>
<stop offset="1" stop-color="#FCEFF2"/>
</linearGradient>
<linearGradient id="paint1_linear_1545_4687" x1="140" y1="24" x2="204" y2="88" gradientUnits="userSpaceOnUse">
<stop stop-color="#F1DFF6"/>
<stop offset="1" stop-color="#FAE5EE"/>
</linearGradient>
<linearGradient id="paint2_linear_1545_4687" x1="162.5" y1="44" x2="185.86" y2="62.4931" gradientUnits="userSpaceOnUse">
<stop stop-color="#B962D3"/>
<stop offset="1" stop-color="#E87DAB"/>
</linearGradient>
<linearGradient id="paint3_linear_1545_4687" x1="140" y1="160" x2="204" y2="224" gradientUnits="userSpaceOnUse">
<stop stop-color="#F1DFF6"/>
<stop offset="1" stop-color="#FAE5EE"/>
</linearGradient>
<linearGradient id="paint4_linear_1545_4687" x1="161" y1="180" x2="184.909" y2="201.917" gradientUnits="userSpaceOnUse">
<stop stop-color="#B962D3"/>
<stop offset="1" stop-color="#E87DAB"/>
</linearGradient>
<linearGradient id="paint5_linear_1545_4687" x1="140" y1="296" x2="204" y2="360" gradientUnits="userSpaceOnUse">
<stop stop-color="#F1DFF6"/>
<stop offset="1" stop-color="#FAE5EE"/>
</linearGradient>
<linearGradient id="paint6_linear_1545_4687" x1="161" y1="316" x2="184.909" y2="337.917" gradientUnits="userSpaceOnUse">
<stop stop-color="#B962D3"/>
<stop offset="1" stop-color="#E87DAB"/>
</linearGradient>
<linearGradient id="paint7_linear_1545_4687" x1="8" y1="0" x2="412.521" y2="318.949" gradientUnits="userSpaceOnUse">
<stop stop-color="#F1DFF6"/>
<stop offset="1" stop-color="#FAE5EE"/>
</linearGradient>
<linearGradient id="paint8_linear_1545_4687" x1="8" y1="348" x2="39.8965" y2="476.055" gradientUnits="userSpaceOnUse">
<stop stop-color="#F1DFF6"/>
<stop offset="1" stop-color="#FAE5EE"/>
</linearGradient>
<linearGradient id="paint9_linear_1545_4687" x1="8" y1="286" x2="137.229" y2="430.14" gradientUnits="userSpaceOnUse">
<stop stop-color="#F1DFF6"/>
<stop offset="1" stop-color="#FAE5EE"/>
</linearGradient>
<linearGradient id="paint10_linear_1545_4687" x1="336.001" y1="68.0007" x2="289.5" y2="-49.6174" gradientUnits="userSpaceOnUse">
<stop stop-color="#F1DFF6"/>
<stop offset="1" stop-color="#FAE5EE"/>
</linearGradient>
<linearGradient id="paint11_linear_1545_4687" x1="336.001" y1="75.0004" x2="298.279" y2="-64.8231" gradientUnits="userSpaceOnUse">
<stop stop-color="#F1DFF6"/>
<stop offset="1" stop-color="#FAE5EE"/>
</linearGradient>
<clipPath id="clip0_1545_4687">
<rect y="424" width="416" height="328" rx="24" transform="rotate(-90 0 424)" fill="white"/>
</clipPath>
</defs>
</svg>
